<?xml version="1.0" encoding="UTF-8" standalone="no"?>
<!DOCTYPE svg PUBLIC "-//W3C//DTD SVG 1.1//EN"
 "http://www.w3.org/Graphics/SVG/1.1/DTD/svg11.dtd">
<!-- Generated by graphviz version 2.43.0 (0)
 -->
<!-- Title: fst_cloud_and_infrastructure Pages: 1 -->
<svg width="363pt" height="408pt"
 viewBox="0.00 0.00 363.08 408.50" xmlns="http://www.w3.org/2000/svg" xmlns:xlink="http://www.w3.org/1999/xlink">
<g id="graph0" class="graph" transform="scale(1 1) rotate(0) translate(4 404.5)">
<title>fst_cloud_and_infrastructure</title>
<polygon fill="white" stroke="transparent" points="-4,4 -4,-404.5 359.08,-404.5 359.08,4 -4,4"/>
<text text-anchor="middle" x="177.54" y="-385.3" font-family="Helvetica,sans-Serif" font-size="14.00">Stage 2 transducer, Cloud and Infrastructure</text>
<!-- start -->
<g id="node1" class="node">
<title>start</title>
</g>
<!-- q0 -->
<g id="node2" class="node">
<title>q0</title>
<ellipse fill="none" stroke="black" cx="56.04" cy="-195.5" rx="18.08" ry="18.08"/>
<text text-anchor="middle" x="56.04" y="-192.7" font-family="Helvetica,sans-Serif" font-size="11.00">q0</text>
</g>
<!-- start&#45;&gt;q0 -->
<g id="edge1" class="edge">
<title>start&#45;&gt;q0</title>
<path fill="none" stroke="black" d="M1.16,-195.5C2.67,-195.5 15.11,-195.5 27.65,-195.5"/>
<polygon fill="black" stroke="black" points="27.97,-199 37.97,-195.5 27.97,-192 27.97,-199"/>
</g>
<!-- qf -->
<g id="node3" class="node">
<title>qf</title>
<ellipse fill="none" stroke="black" cx="333.08" cy="-195.5" rx="18" ry="18"/>
<ellipse fill="none" stroke="black" cx="333.08" cy="-195.5" rx="22" ry="22"/>
<text text-anchor="middle" x="333.08" y="-192.7" font-family="Helvetica,sans-Serif" font-size="11.00">qf</text>
</g>
<!-- q0&#45;&gt;qf -->
<g id="edge2" class="edge">
<title>q0&#45;&gt;qf</title>
<path fill="none" stroke="black" d="M59.15,-213.39C63.41,-245.93 74.15,-312.74 92.08,-326.5 162.94,-380.9 221.46,-379.9 293.08,-326.5 323.37,-303.91 331.07,-258.74 332.56,-227.82"/>
<polygon fill="black" stroke="black" points="336.07,-227.64 332.86,-217.54 329.07,-227.43 336.07,-227.64"/>
<text text-anchor="middle" x="192.58" y="-369.5" font-family="Helvetica,sans-Serif" font-size="10.00">Ansible / ANSIBLE</text>
</g>
<!-- q0&#45;&gt;qf -->
<g id="edge3" class="edge">
<title>q0&#45;&gt;qf</title>
<path fill="none" stroke="black" d="M57.67,-213.47C59.56,-236.22 66.58,-274.6 92.08,-292.5 128.64,-318.16 256.07,-317.51 293.08,-292.5 314.37,-278.11 324.04,-249.97 328.43,-227.69"/>
<polygon fill="black" stroke="black" points="331.92,-228.07 330.15,-217.62 325.02,-226.89 331.92,-228.07"/>
<text text-anchor="middle" x="192.58" y="-314.5" font-family="Helvetica,sans-Serif" font-size="10.00">AWS / AWS</text>
</g>
<!-- q0&#45;&gt;qf -->
<g id="edge4" class="edge">
<title>q0&#45;&gt;qf</title>
<path fill="none" stroke="black" d="M61.38,-212.88C66.16,-227.91 75.47,-248.73 92.08,-258.5 130.58,-281.14 254.06,-280.24 293.08,-258.5 305.89,-251.36 315.02,-238.1 321.21,-225.57"/>
<polygon fill="black" stroke="black" points="324.49,-226.81 325.39,-216.25 318.1,-223.95 324.49,-226.81"/>
<text text-anchor="middle" x="192.58" y="-277.5" font-family="Helvetica,sans-Serif" font-size="10.00">Amazon Web Services / AWS</text>
</g>
<!-- q0&#45;&gt;qf -->
<g id="edge5" class="edge">
<title>q0&#45;&gt;qf</title>
<path fill="none" stroke="black" d="M68.65,-208.64C74.91,-214.71 83.16,-221.29 92.08,-224.5 134.1,-239.63 250.68,-238.54 293.08,-224.5 298.49,-222.71 303.75,-219.85 308.58,-216.6"/>
<polygon fill="black" stroke="black" points="310.82,-219.3 316.72,-210.5 306.62,-213.7 310.82,-219.3"/>
<text text-anchor="middle" x="192.58" y="-237.5" font-family="Helvetica,sans-Serif" font-size="10.00">Azure / AZURE</text>
</g>
<!-- q0&#45;&gt;qf -->
<g id="edge6" class="edge">
<title>q0&#45;&gt;qf</title>
<path fill="none" stroke="black" d="M74.25,-195.5C119.53,-195.5 242.52,-195.5 300.73,-195.5"/>
<polygon fill="black" stroke="black" points="300.81,-199 310.81,-195.5 300.81,-192 300.81,-199"/>
<text text-anchor="middle" x="192.58" y="-198.5" font-family="Helvetica,sans-Serif" font-size="10.00">Microsoft Azure / AZURE</text>
</g>
<!-- q0&#45;&gt;qf -->
<g id="edge7" class="edge">
<title>q0&#45;&gt;qf</title>
<path fill="none" stroke="black" d="M72.3,-187.38C78.29,-184.62 85.34,-181.88 92.08,-180.5 179.59,-162.55 205.25,-164.19 293.08,-180.5 296.36,-181.11 299.72,-181.98 303.03,-183.01"/>
<polygon fill="black" stroke="black" points="302.05,-186.38 312.65,-186.42 304.39,-179.78 302.05,-186.38"/>
<text text-anchor="middle" x="192.58" y="-183.5" font-family="Helvetica,sans-Serif" font-size="10.00">Docker / DOCKER</text>
</g>
<!-- q0&#45;&gt;qf -->
<g id="edge8" class="edge">
<title>q0&#45;&gt;qf</title>
<path fill="none" stroke="black" d="M65.12,-179.72C71.1,-169.9 80.25,-158.12 92.08,-152.5 172.77,-114.16 211.4,-116.31 293.08,-152.5 301.29,-156.14 308.51,-162.45 314.44,-169.14"/>
<polygon fill="black" stroke="black" points="311.79,-171.43 320.78,-177.03 317.24,-167.04 311.79,-171.43"/>
<text text-anchor="middle" x="192.58" y="-155.5" font-family="Helvetica,sans-Serif" font-size="10.00">GCP / GOOGLE_CLOUD</text>
</g>
<!-- q0&#45;&gt;qf -->
<g id="edge9" class="edge">
<title>q0&#45;&gt;qf</title>
<path fill="none" stroke="black" d="M58.65,-177.36C61.54,-156.93 69.6,-124.61 92.08,-109.5 129.15,-84.58 255.54,-85.3 293.08,-109.5 311.54,-121.39 321.35,-144.38 326.52,-163.6"/>
<polygon fill="black" stroke="black" points="323.16,-164.59 328.88,-173.51 329.97,-162.97 323.16,-164.59"/>
<text text-anchor="middle" x="192.58" y="-112.5" font-family="Helvetica,sans-Serif" font-size="10.00">Google Cloud / GOOGLE_CLOUD</text>
</g>
<!-- q0&#45;&gt;qf -->
<g id="edge10" class="edge">
<title>q0&#45;&gt;qf</title>
<path fill="none" stroke="black" d="M56.21,-177.15C56.1,-149.85 60.48,-99.19 92.08,-75.5 127.82,-48.7 256.94,-49.25 293.08,-75.5 320.42,-95.36 328.97,-134.87 331.45,-163.13"/>
<polygon fill="black" stroke="black" points="327.98,-163.6 332.13,-173.35 334.96,-163.14 327.98,-163.6"/>
<text text-anchor="middle" x="192.58" y="-78.5" font-family="Helvetica,sans-Serif" font-size="10.00">Google Cloud Platform / GOOGLE_CLOUD</text>
</g>
<!-- q0&#45;&gt;qf -->
<g id="edge11" class="edge">
<title>q0&#45;&gt;qf</title>
<path fill="none" stroke="black" d="M58.4,-177.41C61.6,-140.46 70.97,-58.34 92.08,-41.5 161.91,14.22 222.58,13.37 293.08,-41.5 312.15,-56.34 323.39,-123.03 328.58,-163.62"/>
<polygon fill="black" stroke="black" points="325.11,-164.08 329.8,-173.58 332.06,-163.23 325.11,-164.08"/>
<text text-anchor="middle" x="192.58" y="-44.5" font-family="Helvetica,sans-Serif" font-size="10.00">Terraform / TERRAFORM</text>
</g>
</g>
</svg>
