<?xml version="1.0" encoding="UTF-8" standalone="no"?>
<!DOCTYPE svg PUBLIC "-//W3C//DTD SVG 1.1//EN"
 "http://www.w3.org/Graphics/SVG/1.1/DTD/svg11.dtd">
<!-- Generated by graphviz version 2.43.0 (0)
 -->
<!-- Title: fst_programming_languages Pages: 1 -->
<svg width="341pt" height="161pt"
 viewBox="0.00 0.00 341.00 161.06" xmlns="http://www.w3.org/2000/svg" xmlns:xlink="http://www.w3.org/1999/xlink">
<g id="graph0" class="graph" transform="scale(1 1) rotate(0) translate(4 157.06)">
<title>fst_programming_languages</title>
<polygon fill="white" stroke="transparent" points="-4,4 -4,-157.06 337,-157.06 337,4 -4,4"/>
<text text-anchor="middle" x="166.5" y="-137.86" font-family="Helvetica,sans-Serif" font-size="14.00">Stage 2 transducer, Programming Languages</text>
<!-- start -->
<g id="node1" class="node">
<title>start</title>
</g>
<!-- q0 -->
<g id="node2" class="node">
<title>q0</title>
<ellipse fill="none" stroke="black" cx="86.5" cy="-57.06" rx="18.08" ry="18.08"/>
<text text-anchor="middle" x="86.5" y="-54.26" font-family="Helvetica,sans-Serif" font-size="11.00">q0</text>
</g>
<!-- start&#45;&gt;q0 -->
<g id="edge1" class="edge">
<title>start&#45;&gt;q0</title>
<path fill="none" stroke="black" d="M31.61,-57.06C33.13,-57.06 45.57,-57.06 58.11,-57.06"/>
<polygon fill="black" stroke="black" points="58.43,-60.56 68.43,-57.06 58.43,-53.56 58.43,-60.56"/>
</g>
<!-- qf -->
<g id="node3" class="node">
<title>qf</title>
<ellipse fill="none" stroke="black" cx="280.54" cy="-57.06" rx="18" ry="18"/>
<ellipse fill="none" stroke="black" cx="280.54" cy="-57.06" rx="22" ry="22"/>
<text text-anchor="middle" x="280.54" y="-54.26" font-family="Helvetica,sans-Serif" font-size="11.00">qf</text>
</g>
<!-- q0&#45;&gt;qf -->
<g id="edge2" class="edge">
<title>q0&#45;&gt;qf</title>
<path fill="none" stroke="black" d="M95.06,-73.45C100.91,-84.03 110.13,-96.91 122.54,-103.06 169.54,-126.34 192.95,-125.11 240.54,-103.06 249.33,-98.99 256.86,-91.85 262.9,-84.4"/>
<polygon fill="black" stroke="black" points="265.74,-86.44 268.84,-76.31 260.1,-82.29 265.74,-86.44"/>
<text text-anchor="middle" x="181.54" y="-122.06" font-family="Helvetica,sans-Serif" font-size="10.00">JS / JAVASCRIPT</text>
</g>
<!-- q0&#45;&gt;qf -->
<g id="edge3" class="edge">
<title>q0&#45;&gt;qf</title>
<path fill="none" stroke="black" d="M103.61,-63.82C109.46,-65.94 116.2,-68.01 122.54,-69.06 174.27,-77.68 188.68,-76.86 240.54,-69.06 243.59,-68.6 246.74,-67.95 249.85,-67.19"/>
<polygon fill="black" stroke="black" points="250.88,-70.54 259.56,-64.46 248.99,-63.8 250.88,-70.54"/>
<text text-anchor="middle" x="181.54" y="-78.06" font-family="Helvetica,sans-Serif" font-size="10.00">JavaScript / JAVASCRIPT</text>
</g>
<!-- q0&#45;&gt;qf -->
<g id="edge4" class="edge">
<title>q0&#45;&gt;qf</title>
<path fill="none" stroke="black" d="M104.61,-56.48C110.31,-56.31 116.7,-56.15 122.54,-56.06 174.98,-55.31 188.1,-55.39 240.54,-56.06 243.09,-56.1 245.73,-56.14 248.38,-56.19"/>
<polygon fill="black" stroke="black" points="248.41,-59.69 258.49,-56.42 248.58,-52.7 248.41,-59.69"/>
<text text-anchor="middle" x="181.54" y="-59.06" font-family="Helvetica,sans-Serif" font-size="10.00">Python / PYTHON</text>
</g>
<!-- q0&#45;&gt;qf -->
<g id="edge5" class="edge">
<title>q0&#45;&gt;qf</title>
<path fill="none" stroke="black" d="M102.3,-48.05C108.35,-44.86 115.55,-41.67 122.54,-40.06 173.65,-28.32 189.2,-29.36 240.54,-40.06 244.04,-40.79 247.62,-41.86 251.11,-43.1"/>
<polygon fill="black" stroke="black" points="250.04,-46.44 260.62,-46.96 252.67,-39.95 250.04,-46.44"/>
<text text-anchor="middle" x="181.54" y="-43.06" font-family="Helvetica,sans-Serif" font-size="10.00">TS / TYPESCRIPT</text>
</g>
<!-- q0&#45;&gt;qf -->
<g id="edge6" class="edge">
<title>q0&#45;&gt;qf</title>
<path fill="none" stroke="black" d="M96.03,-41.58C102.08,-32.3 111.14,-21.31 122.54,-16.06 170.17,5.89 192.34,4.61 240.54,-16.06 248.28,-19.39 255.22,-25.08 261.01,-31.19"/>
<polygon fill="black" stroke="black" points="258.55,-33.7 267.72,-39.01 263.86,-29.14 258.55,-33.7"/>
<text text-anchor="middle" x="181.54" y="-19.06" font-family="Helvetica,sans-Serif" font-size="10.00">TypeScript / TYPESCRIPT</text>
</g>
</g>
</svg>
